<svg width="101" height="100" viewBox="0 0 101 100" fill="none" xmlns="http://www.w3.org/2000/svg">
<path d="M50.188 100C77.8022 100 100.188 77.6142 100.188 50C100.188 22.3858 77.8022 0 50.188 0C22.5738 0 0.187988 22.3858 0.187988 50C0.187988 77.6142 22.5738 100 50.188 100Z" fill="#FAFAFA"/>
<path d="M33.8081 39.62C32.8801 39.62 31.973 39.3447 31.2015 38.8289C30.43 38.3131 29.8289 37.58 29.4742 36.7225C29.1195 35.8649 29.0272 34.9214 29.209 34.0113C29.3908 33.1013 29.8385 32.2656 30.4954 31.6101C31.1523 30.9546 31.9889 30.5087 32.8993 30.3289C33.8098 30.1491 34.7531 30.2434 35.6099 30.5999C36.4667 30.9564 37.1985 31.5591 37.7126 32.3316C38.2267 33.1042 38.5001 34.012 38.4981 34.94C38.4955 36.1821 38.0002 37.3725 37.121 38.2499C36.2417 39.1272 35.0503 39.62 33.8081 39.62ZM33.8081 31.75C33.1772 31.75 32.5605 31.9371 32.0359 32.2876C31.5113 32.6381 31.1024 33.1363 30.861 33.7192C30.6195 34.3021 30.5564 34.9435 30.6795 35.5623C30.8025 36.1811 31.1063 36.7495 31.5525 37.1957C31.9986 37.6418 32.567 37.9456 33.1858 38.0687C33.8046 38.1918 34.446 38.1286 35.0289 37.8872C35.6118 37.6457 36.11 37.2369 36.4606 36.7123C36.8111 36.1877 36.9981 35.5709 36.9981 34.94C36.9981 34.5211 36.9156 34.1063 36.7553 33.7192C36.595 33.3322 36.36 32.9805 36.0638 32.6843C35.7676 32.3881 35.4159 32.1531 35.0289 31.9928C34.6419 31.8325 34.2271 31.75 33.8081 31.75Z" fill="#333333"/>
<path d="M50.1881 39.62C49.26 39.62 48.3529 39.3447 47.5814 38.8289C46.8099 38.3131 46.2088 37.58 45.8541 36.7225C45.4994 35.8649 45.4071 34.9214 45.5889 34.0113C45.7707 33.1013 46.2184 32.2656 46.8753 31.6101C47.5322 30.9546 48.3688 30.5087 49.2792 30.3289C50.1897 30.1491 51.133 30.2434 51.9898 30.5999C52.8466 30.9564 53.5784 31.5591 54.0925 32.3316C54.6066 33.1042 54.88 34.012 54.8781 34.94C54.8754 36.1821 54.3801 37.3725 53.5009 38.2499C52.6216 39.1272 51.4302 39.62 50.1881 39.62ZM50.1881 31.75C49.5571 31.75 48.9404 31.9371 48.4158 32.2876C47.8912 32.6381 47.4823 33.1363 47.2409 33.7192C46.9994 34.3021 46.9363 34.9435 47.0594 35.5623C47.1824 36.1811 47.4862 36.7495 47.9324 37.1957C48.3785 37.6418 48.9469 37.9456 49.5657 38.0687C50.1845 38.1918 50.8259 38.1286 51.4088 37.8872C51.9917 37.6457 52.4899 37.2369 52.8404 36.7123C53.1909 36.1877 53.3781 35.5709 53.3781 34.94C53.3781 34.0939 53.042 33.2826 52.4437 32.6843C51.8455 32.0861 51.0341 31.75 50.1881 31.75Z" fill="#333333"/>
<path d="M66.5681 39.62C65.6397 39.622 64.7316 39.3483 63.9588 38.8337C63.186 38.3192 62.5833 37.5868 62.2271 36.7294C61.8709 35.872 61.7772 34.9282 61.9578 34.0175C62.1384 33.1068 62.5853 32.2702 63.2418 31.6137C63.8983 30.9572 64.7349 30.5103 65.6456 30.3296C66.5563 30.149 67.5002 30.2427 68.3575 30.5989C69.2149 30.9551 69.9473 31.5578 70.4619 32.3306C70.9765 33.1034 71.2501 34.0115 71.2481 34.94C71.2455 36.1804 70.7516 37.3692 69.8745 38.2463C68.9974 39.1234 67.8085 39.6173 66.5681 39.62ZM66.5681 31.75C65.9368 31.748 65.3191 31.9334 64.7932 32.2827C64.2672 32.632 63.8568 33.1296 63.6138 33.7123C63.3709 34.295 63.3063 34.9367 63.4282 35.5562C63.5502 36.1756 63.8532 36.745 64.2989 37.1921C64.7447 37.6392 65.3131 37.944 65.9321 38.0679C66.5512 38.1918 67.1931 38.1292 67.7766 37.8881C68.3601 37.647 68.8589 37.2381 69.2098 36.7133C69.5608 36.1885 69.7481 35.5713 69.7481 34.94C69.7481 34.0957 69.4134 33.2858 68.8174 32.6878C68.2213 32.0899 67.4125 31.7526 66.5681 31.75Z" fill="#1A2AB2"/>
<path d="M33.8082 54.69C32.8806 54.69 31.9738 54.4149 31.2025 53.8996C30.4313 53.3843 29.8302 52.6518 29.4752 51.7948C29.1202 50.9378 29.0273 49.9948 29.2083 49.085C29.3892 48.1753 29.8359 47.3396 30.4918 46.6837C31.1478 46.0278 31.9834 45.5811 32.8932 45.4001C33.803 45.2192 34.746 45.312 35.603 45.667C36.4599 46.022 37.1924 46.6231 37.7078 47.3944C38.2231 48.1656 38.4982 49.0724 38.4982 50C38.4982 51.2439 38.0041 52.4368 37.1245 53.3163C36.245 54.1959 35.052 54.69 33.8082 54.69ZM33.8082 46.81C33.1772 46.81 32.5605 46.9971 32.0359 47.3476C31.5113 47.6981 31.1024 48.1963 30.861 48.7792C30.6195 49.3621 30.5564 50.0035 30.6795 50.6223C30.8026 51.2411 31.1064 51.8095 31.5525 52.2557C31.9986 52.7018 32.567 53.0056 33.1858 53.1287C33.8046 53.2518 34.446 53.1886 35.0289 52.9472C35.6118 52.7057 36.11 52.2969 36.4606 51.7723C36.8111 51.2477 36.9982 50.6309 36.9982 50C36.9982 49.5811 36.9156 49.1663 36.7553 48.7792C36.595 48.3922 36.3601 48.0405 36.0638 47.7443C35.7676 47.4481 35.416 47.2131 35.0289 47.0528C34.6419 46.8925 34.2271 46.81 33.8082 46.81Z" fill="#333333"/>
<path d="M50.1881 54.69C49.2605 54.69 48.3537 54.4149 47.5824 53.8996C46.8112 53.3843 46.21 52.6518 45.855 51.7948C45.5001 50.9378 45.4072 49.9948 45.5882 49.085C45.7691 48.1753 46.2158 47.3396 46.8717 46.6837C47.5276 46.0278 48.3633 45.5811 49.2731 45.4001C50.1828 45.2192 51.1259 45.312 51.9829 45.667C52.8398 46.022 53.5723 46.6231 54.0877 47.3944C54.603 48.1656 54.8781 49.0724 54.8781 50C54.8754 51.2431 54.3804 52.4344 53.5015 53.3134C52.6225 54.1924 51.4311 54.6874 50.1881 54.69ZM50.1881 46.81C49.5571 46.81 48.9404 46.9971 48.4158 47.3476C47.8912 47.6981 47.4823 48.1963 47.2409 48.7792C46.9994 49.3621 46.9363 50.0035 47.0594 50.6223C47.1824 51.2411 47.4862 51.8095 47.9324 52.2557C48.3785 52.7018 48.9469 53.0056 49.5657 53.1287C50.1845 53.2518 50.8259 53.1886 51.4088 52.9472C51.9917 52.7057 52.4899 52.2969 52.8404 51.7723C53.1909 51.2477 53.3781 50.6309 53.3781 50C53.3781 49.154 53.042 48.3426 52.4437 47.7443C51.8455 47.1461 51.0341 46.81 50.1881 46.81Z" fill="#333333"/>
<path d="M66.5682 54.69C65.6402 54.692 64.7324 54.4186 63.9598 53.9044C63.1873 53.3903 62.5846 52.6585 62.2281 51.8017C61.8716 50.9449 61.7772 50.0016 61.9571 49.0912C62.1369 48.1807 62.5828 47.3441 63.2383 46.6872C63.8938 46.0303 64.7295 45.5826 65.6395 45.4009C66.5496 45.2191 67.4931 45.3114 68.3506 45.666C69.2082 46.0207 69.9413 46.6218 70.4571 47.3933C70.9729 48.1648 71.2482 49.072 71.2482 50C71.2455 51.2413 70.7519 52.4312 69.8751 53.3099C68.9983 54.1886 67.8095 54.6847 66.5682 54.69ZM66.5682 46.81C65.9368 46.808 65.3191 46.9934 64.7932 47.3427C64.2673 47.692 63.8568 48.1896 63.6139 48.7723C63.3709 49.355 63.3063 49.9967 63.4283 50.6162C63.5502 51.2356 63.8532 51.805 64.299 52.2521C64.7447 52.6992 65.3131 53.004 65.9322 53.1279C66.5512 53.2518 67.1931 53.1893 67.7766 52.9481C68.3601 52.707 68.8589 52.2981 69.2099 51.7733C69.5608 51.2485 69.7482 50.6313 69.7482 50C69.7482 49.1557 69.4135 48.3458 68.8174 47.7478C68.2213 47.1499 67.4125 46.8126 66.5682 46.81Z" fill="#333333"/>
<path d="M33.8082 70.75C32.8806 70.75 31.9738 70.4749 31.2025 69.9596C30.4313 69.4442 29.8302 68.7118 29.4752 67.8548C29.1202 66.9978 29.0273 66.0548 29.2083 65.145C29.3892 64.2353 29.8359 63.3996 30.4918 62.7437C31.1478 62.0878 31.9834 61.6411 32.8932 61.4601C33.803 61.2791 34.746 61.372 35.603 61.727C36.4599 62.082 37.1924 62.6831 37.7078 63.4544C38.2231 64.2256 38.4982 65.1324 38.4982 66.06C38.4982 67.3039 38.0041 68.4968 37.1245 69.3763C36.245 70.2559 35.052 70.75 33.8082 70.75ZM33.8082 62.88C33.1768 62.88 32.5597 63.0673 32.0349 63.4183C31.5101 63.7693 31.1012 64.2681 30.86 64.8516C30.6189 65.435 30.5563 66.0769 30.6802 66.696C30.8041 67.3151 31.1089 67.8835 31.5561 68.3292C32.0032 68.7749 32.5725 69.078 33.192 69.1999C33.8114 69.3219 34.4532 69.2573 35.0359 69.0143C35.6186 68.7713 36.1161 68.3609 36.4654 67.835C36.8147 67.3091 37.0001 66.6913 36.9982 66.06C36.9982 65.6415 36.9156 65.2272 36.7552 64.8407C36.5947 64.4543 36.3596 64.1033 36.0632 63.8079C35.7669 63.5124 35.4151 63.2784 35.0282 63.1192C34.6412 62.96 34.2266 62.8787 33.8082 62.88Z" fill="#333333"/>
<path d="M50.1881 70.75C49.2605 70.75 48.3537 70.4749 47.5824 69.9596C46.8112 69.4442 46.21 68.7118 45.855 67.8548C45.5001 66.9978 45.4072 66.0548 45.5882 65.145C45.7691 64.2353 46.2158 63.3996 46.8717 62.7437C47.5276 62.0878 48.3633 61.6411 49.2731 61.4601C50.1828 61.2791 51.1259 61.372 51.9829 61.727C52.8398 62.082 53.5723 62.6831 54.0877 63.4544C54.603 64.2256 54.8781 65.1324 54.8781 66.06C54.8754 67.303 54.3804 68.4944 53.5015 69.3734C52.6225 70.2524 51.4311 70.7474 50.1881 70.75ZM50.1881 62.88C49.5567 62.88 48.9395 63.0673 48.4147 63.4183C47.8899 63.7693 47.4811 64.2681 47.2399 64.8516C46.9988 65.435 46.9362 66.0769 47.0601 66.696C47.184 67.3151 47.4888 67.8835 47.9359 68.3292C48.3831 68.7749 48.9524 69.078 49.5719 69.1999C50.1913 69.3219 50.833 69.2573 51.4157 69.0143C51.9985 68.7713 52.496 68.3609 52.8453 67.835C53.1946 67.3091 53.38 66.6913 53.3781 66.06C53.3781 65.6415 53.2955 65.2272 53.135 64.8407C52.9746 64.4543 52.7395 64.1033 52.4431 63.8079C52.1468 63.5124 51.795 63.2784 51.4081 63.1192C51.0211 62.96 50.6065 62.8787 50.1881 62.88Z" fill="#333333"/>
<path d="M66.5682 70.75C65.6402 70.752 64.7324 70.4786 63.9598 69.9644C63.1873 69.4503 62.5846 68.7185 62.2281 67.8617C61.8716 67.0049 61.7772 66.0616 61.9571 65.1512C62.1369 64.2407 62.5828 63.4041 63.2383 62.7472C63.8938 62.0903 64.7295 61.6426 65.6395 61.4608C66.5496 61.2791 67.4931 61.3714 68.3506 61.726C69.2082 62.0807 69.9413 62.6818 70.4571 63.4533C70.9729 64.2248 71.2482 65.132 71.2482 66.06C71.2482 67.3021 70.7554 68.4935 69.8781 69.3728C69.0007 70.252 67.8103 70.7473 66.5682 70.75ZM66.5682 62.88C65.9364 62.878 65.3183 63.0637 64.7921 63.4134C64.266 63.7632 63.8556 64.2613 63.6129 64.8446C63.3702 65.4279 63.3062 66.0701 63.429 66.6899C63.5518 67.3096 63.8558 67.8789 64.3025 68.3256C64.7493 68.7724 65.3186 69.0764 65.9383 69.1992C66.558 69.3219 67.2003 69.2579 67.7836 69.0152C68.3669 68.7725 68.865 68.3621 69.2147 67.836C69.5645 67.3099 69.7501 66.6918 69.7482 66.06C69.7482 65.2166 69.4131 64.4078 68.8168 63.8114C68.2204 63.215 67.4116 62.88 66.5682 62.88Z" fill="#333333"/>
</svg>
