<svg width="101" height="100" viewBox="0 0 101 100" fill="none" xmlns="http://www.w3.org/2000/svg">
<path d="M50.188 100C77.8022 100 100.188 77.6142 100.188 50C100.188 22.3858 77.8022 0 50.188 0C22.5738 0 0.187988 22.3858 0.187988 50C0.187988 77.6142 22.5738 100 50.188 100Z" fill="#FAFAFA"/>
<path d="M36.408 80.29C36.2099 80.2875 36.0206 80.2076 35.8805 80.0675C35.7404 79.9274 35.6606 79.7381 35.658 79.54V60.9C35.6606 60.7526 35.6339 60.6061 35.5793 60.4691C35.5247 60.3321 35.4434 60.2074 35.34 60.1022C35.2367 59.997 35.1134 59.9134 34.9774 59.8564C34.8414 59.7994 34.6955 59.77 34.548 59.77H30.048C29.7527 59.7727 29.4704 59.8918 29.2625 60.1016C29.0546 60.3114 28.938 60.5947 28.938 60.89V79.54C28.938 79.739 28.859 79.9297 28.7183 80.0704C28.5777 80.211 28.3869 80.29 28.188 80.29C27.9891 80.29 27.7983 80.211 27.6577 80.0704C27.517 79.9297 27.438 79.739 27.438 79.54V60.9C27.438 60.2069 27.7126 59.542 28.2018 59.051C28.691 58.5599 29.3549 58.2827 30.048 58.28H34.548C34.8937 58.2774 35.2366 58.3432 35.5568 58.4737C35.8769 58.6042 36.1681 58.7968 36.4136 59.0403C36.659 59.2839 36.8537 59.5736 36.9867 59.8928C37.1196 60.212 37.188 60.5543 37.188 60.9V79.54C37.1881 79.6411 37.1677 79.7412 37.1282 79.8342C37.0886 79.9272 37.0307 80.0112 36.9578 80.0813C36.885 80.1513 36.7987 80.2059 36.7042 80.2418C36.6097 80.2777 36.509 80.2941 36.408 80.29Z" fill="#333333"/>
<path d="M52.2981 80.29C52.1 80.2874 51.9108 80.2076 51.7707 80.0675C51.6306 79.9274 51.5507 79.7381 51.5481 79.54V50.48C51.5481 50.1856 51.4312 49.9033 51.223 49.6951C51.0148 49.4869 50.7325 49.37 50.4381 49.37H45.9381C45.6437 49.37 45.3614 49.4869 45.1532 49.6951C44.9451 49.9033 44.8281 50.1856 44.8281 50.48V79.54C44.8281 79.7389 44.7491 79.9297 44.6085 80.0703C44.4678 80.211 44.277 80.29 44.0781 80.29C43.8792 80.29 43.6884 80.211 43.5478 80.0703C43.4071 79.9297 43.3281 79.7389 43.3281 79.54V50.48C43.3281 49.7878 43.6031 49.1239 44.0926 48.6344C44.582 48.145 45.2459 47.87 45.9381 47.87H50.4381C51.1303 47.87 51.7942 48.145 52.2837 48.6344C52.7731 49.1239 53.0481 49.7878 53.0481 50.48V79.54C53.0481 79.7389 52.9691 79.9297 52.8285 80.0703C52.6878 80.211 52.497 80.29 52.2981 80.29Z" fill="#333333"/>
<path d="M68.1878 80.29C67.9897 80.2874 67.8004 80.2076 67.6603 80.0675C67.5202 79.9274 67.4404 79.7381 67.4378 79.54V40.06C67.4378 39.7656 67.3208 39.4833 67.1127 39.2751C66.9045 39.067 66.6222 38.95 66.3278 38.95H61.8278C61.5334 38.95 61.2511 39.067 61.0429 39.2751C60.8347 39.4833 60.7178 39.7656 60.7178 40.06V79.54C60.7178 79.7389 60.6388 79.9297 60.4981 80.0703C60.3575 80.211 60.1667 80.29 59.9678 80.29C59.7689 80.29 59.5781 80.211 59.4374 80.0703C59.2968 79.9297 59.2178 79.7389 59.2178 79.54V40.06C59.2178 39.3678 59.4928 38.7039 59.9822 38.2145C60.4717 37.725 61.1356 37.45 61.8278 37.45H66.3278C67.02 37.45 67.6839 37.725 68.1733 38.2145C68.6628 38.7039 68.9378 39.3678 68.9378 40.06V79.54C68.9352 79.7381 68.8553 79.9274 68.7152 80.0675C68.5751 80.2076 68.3859 80.2874 68.1878 80.29Z" fill="#333333"/>
<path d="M63.7779 32.33H60.7779C60.579 32.33 60.3882 32.251 60.2476 32.1103C60.1069 31.9697 60.0279 31.7789 60.0279 31.58C60.0279 31.3811 60.1069 31.1903 60.2476 31.0497C60.3882 30.909 60.579 30.83 60.7779 30.83H63.7779C64.4038 30.83 65.0041 30.5814 65.4467 30.1388C65.8893 29.6962 66.1379 29.0959 66.1379 28.47C66.1379 27.8441 65.8893 27.2438 65.4467 26.8012C65.0041 26.3587 64.4038 26.11 63.7779 26.11H60.7779C60.679 26.1114 60.5809 26.0929 60.4893 26.0557C60.3977 26.0185 60.3145 25.9633 60.2446 25.8933C60.1747 25.8234 60.1195 25.7402 60.0822 25.6486C60.045 25.557 60.0266 25.4589 60.0279 25.36V20.46C60.0279 20.2611 60.1069 20.0703 60.2476 19.9297C60.3882 19.789 60.579 19.71 60.7779 19.71H66.3979C66.5968 19.71 66.7876 19.789 66.9282 19.9297C67.0689 20.0703 67.1479 20.2611 67.1479 20.46C67.1479 20.6589 67.0689 20.8497 66.9282 20.9904C66.7876 21.131 66.5968 21.21 66.3979 21.21H61.4979V24.61H63.7779C64.8016 24.61 65.7834 25.0167 66.5073 25.7406C67.2312 26.4645 67.6379 27.4463 67.6379 28.47C67.6379 29.4938 67.2312 30.4756 66.5073 31.1995C65.7834 31.9233 64.8016 32.33 63.7779 32.33Z" fill="#1A2AB2"/>
</svg>
