<svg width="101" height="100" viewBox="0 0 101 100" fill="none" xmlns="http://www.w3.org/2000/svg">
<path d="M50.188 100C77.8022 100 100.188 77.6142 100.188 50C100.188 22.3858 77.8022 0 50.188 0C22.5738 0 0.187988 22.3858 0.187988 50C0.187988 77.6142 22.5738 100 50.188 100Z" fill="#FAFAFA"/>
<path d="M39.788 75C38.943 75.0025 38.1059 74.8376 37.325 74.515C36.544 74.1923 35.8347 73.7182 35.238 73.12L24.298 62.16C23.0926 60.9525 22.4155 59.3161 22.4155 57.61C22.4155 55.9038 23.0926 54.2674 24.298 53.06V53.06L40.968 36.39C42.0936 35.2642 43.5979 34.5976 45.188 34.52L57.128 33.89C58.0432 33.8412 58.9582 33.9889 59.8116 34.3232C60.6649 34.6575 61.4368 35.1706 62.0753 35.8281C62.7139 36.4855 63.2042 37.2721 63.5134 38.1349C63.8226 38.9976 63.9435 39.9166 63.868 40.83L62.938 52.33C62.8099 53.8411 62.151 55.2582 61.078 56.33L44.328 73.1C43.7344 73.701 43.0275 74.1785 42.2482 74.5046C41.469 74.8307 40.6328 74.9991 39.788 75ZM25.358 54.12C24.8972 54.5789 24.5316 55.1244 24.2821 55.725C24.0326 56.3256 23.9042 56.9696 23.9042 57.62C23.9042 58.2703 24.0326 58.9143 24.2821 59.5149C24.5316 60.1155 24.8972 60.661 25.358 61.12L36.298 72.12C36.757 72.5808 37.3024 72.9464 37.903 73.1959C38.5036 73.4453 39.1476 73.5738 39.798 73.5738C40.4484 73.5738 41.0923 73.4453 41.6929 73.1959C42.2936 72.9464 42.839 72.5808 43.298 72.12L60.008 55.3C60.8365 54.4725 61.3434 53.3771 61.438 52.21L62.368 40.71C62.4209 40.0089 62.3253 39.3045 62.0875 38.6428C61.8497 37.9811 61.4751 37.377 60.988 36.87C60.4988 36.3638 59.9059 35.9695 59.25 35.714C58.5941 35.4585 57.8906 35.348 57.188 35.39L45.258 36C44.0419 36.0705 42.8933 36.5825 42.028 37.44L25.358 54.12Z" fill="#333333"/>
<path d="M53.8481 76.75C53.032 76.7499 52.2248 76.5796 51.4781 76.25L43.8081 72.91C43.7151 72.8723 43.6309 72.8157 43.5607 72.744C43.4905 72.6722 43.4358 72.5867 43.4001 72.4929C43.3645 72.399 43.3486 72.2988 43.3534 72.1985C43.3582 72.0982 43.3837 72 43.4281 71.91C43.4672 71.818 43.5243 71.7346 43.5961 71.665C43.6678 71.5953 43.7528 71.5407 43.846 71.5044C43.9392 71.468 44.0387 71.4507 44.1386 71.4534C44.2386 71.4561 44.3371 71.4787 44.4281 71.52L52.0981 74.86C53.1832 75.3295 54.41 75.35 55.5101 74.9171C56.6103 74.4842 57.4941 73.6331 57.9681 72.55L66.6381 52.65C67.056 51.6794 67.1197 50.5928 66.8181 49.58L63.7481 39.44C63.5373 38.7298 63.1526 38.0834 62.6287 37.5595C62.1048 37.0356 61.4584 36.6508 60.7481 36.44C60.6536 36.4124 60.5654 36.3665 60.4886 36.3048C60.4118 36.2432 60.3479 36.167 60.3005 36.0806C60.2532 35.9943 60.2233 35.8994 60.2126 35.8015C60.2019 35.7036 60.2106 35.6046 60.2381 35.51C60.2645 35.4147 60.3098 35.3257 60.3711 35.2482C60.4325 35.1707 60.5088 35.1062 60.5955 35.0587C60.6822 35.0111 60.7775 34.9815 60.8759 34.9714C60.9742 34.9613 61.0736 34.971 61.1681 35C62.1161 35.2836 62.9792 35.7972 63.6805 36.4951C64.3819 37.193 64.8998 38.0535 65.1881 39L68.1881 49.16C68.5954 50.5154 68.5104 51.9712 67.9481 53.27L59.2781 73.17C58.8129 74.2256 58.0533 75.1247 57.0903 75.7596C56.1273 76.3945 55.0016 76.7384 53.8481 76.75V76.75Z" fill="#333333"/>
<path d="M69.2981 42.75C69.139 42.7493 68.9845 42.6966 68.8581 42.6C68.7785 42.5417 68.7113 42.4682 68.6602 42.3838C68.609 42.2994 68.5751 42.2057 68.5602 42.1082C68.5453 42.0107 68.5499 41.9112 68.5735 41.8154C68.5972 41.7196 68.6395 41.6294 68.6981 41.55C69.6705 40.2271 70.2571 38.6605 70.3927 37.0242C70.5284 35.388 70.2077 33.7462 69.4664 32.2812C68.7251 30.8163 67.5921 29.5855 66.1934 28.7257C64.7947 27.8659 63.1849 27.4107 61.5431 27.4107C59.9012 27.4107 58.2915 27.8659 56.8928 28.7257C55.4941 29.5855 54.3611 30.8163 53.6198 32.2812C52.8785 33.7462 52.5578 35.388 52.6934 37.0242C52.8291 38.6605 53.4157 40.2271 54.3881 41.55C54.5061 41.7105 54.5556 41.9112 54.5256 42.1081C54.4955 42.3051 54.3885 42.482 54.2281 42.6C54.0676 42.718 53.8669 42.7675 53.6699 42.7375C53.473 42.7075 53.2961 42.6005 53.1781 42.44C52.0419 40.8935 51.3566 39.0624 51.1984 37.1499C51.0402 35.2374 51.4153 33.3185 52.2819 31.6064C53.1486 29.8942 54.4729 28.4559 56.1078 27.451C57.7427 26.4462 59.6241 25.9142 61.5431 25.9142C63.4621 25.9142 65.3435 26.4462 66.9784 27.451C68.6133 28.4559 69.9376 29.8942 70.8042 31.6064C71.6709 33.3185 72.046 35.2374 71.8878 37.1499C71.7296 39.0624 71.0443 40.8935 69.9081 42.44C69.8372 42.5352 69.7452 42.6127 69.6394 42.6665C69.5336 42.7203 69.4168 42.7488 69.2981 42.75V42.75Z" fill="#333333"/>
<path d="M42.6578 61.14H42.4378C42.1785 61.0945 41.9376 60.9764 41.7428 60.7994C41.5481 60.6224 41.4076 60.3937 41.3377 60.14L40.3377 56.82L37.0078 55.82C36.7601 55.7465 36.5382 55.6045 36.3678 55.4104C36.1974 55.2162 36.0853 54.9779 36.0445 54.7228C36.0037 54.4677 36.0359 54.2062 36.1374 53.9686C36.2388 53.731 36.4053 53.527 36.6177 53.38L39.4678 51.38L39.4177 47.9C39.414 47.6428 39.4822 47.3898 39.6146 47.1693C39.747 46.9488 39.9383 46.7698 40.1671 46.6523C40.3958 46.5348 40.6529 46.4835 40.9092 46.5043C41.1655 46.5251 41.4109 46.6171 41.6177 46.77L44.4177 48.86L47.7177 47.74C47.9616 47.6573 48.2237 47.6445 48.4744 47.703C48.7252 47.7615 48.9546 47.889 49.1366 48.0711C49.3187 48.2532 49.4462 48.4825 49.5047 48.7333C49.5632 48.984 49.5504 49.2461 49.4677 49.49V49.49L48.3478 52.79L50.4378 55.59C50.5908 55.7965 50.6832 56.0417 50.7044 56.2979C50.7256 56.5541 50.6748 56.8111 50.5577 57.04C50.443 57.2715 50.2643 57.4652 50.0427 57.5982C49.8211 57.7311 49.566 57.7977 49.3077 57.79H45.8278L43.8278 60.63C43.6882 60.8029 43.509 60.9396 43.3053 61.0284C43.1016 61.1172 42.8794 61.1554 42.6578 61.14V61.14ZM37.6578 54.44L41.1377 55.52C41.2528 55.5562 41.3574 55.6197 41.4427 55.705C41.528 55.7903 41.5915 55.8949 41.6278 56.01L42.7078 59.49L44.8077 56.49C44.8762 56.3891 44.9688 56.307 45.077 56.2511C45.1853 56.1952 45.3059 56.1673 45.4278 56.17H49.0678L46.8877 53.25C46.814 53.1529 46.7654 53.0391 46.7462 52.9188C46.727 52.7984 46.7378 52.6751 46.7777 52.56L47.9477 49.12L44.5078 50.29C44.3919 50.325 44.2696 50.3333 44.1501 50.3143C44.0306 50.2952 43.917 50.2493 43.8178 50.18L40.8978 48L40.9477 51.64C40.9486 51.7615 40.92 51.8814 40.8642 51.9894C40.8085 52.0975 40.7273 52.1903 40.6278 52.26L37.6578 54.44Z" fill="#1A2AB2"/>
</svg>
