<svg width="101" height="100" viewBox="0 0 101 100" fill="none" xmlns="http://www.w3.org/2000/svg">
<path d="M50.188 100C77.8022 100 100.188 77.6142 100.188 50C100.188 22.3858 77.8022 0 50.188 0C22.5738 0 0.187988 22.3858 0.187988 50C0.187988 77.6142 22.5738 100 50.188 100Z" fill="#FAFAFA"/>
<path d="M48.8978 80.59H39.1878C38.0686 80.59 36.9952 80.1454 36.2038 79.354C35.4124 78.5626 34.9678 77.4892 34.9678 76.37V23.63C34.9678 22.5108 35.4124 21.4374 36.2038 20.646C36.9952 19.8546 38.0686 19.41 39.1878 19.41H48.9278C50.0452 19.4126 51.1161 19.8584 51.9053 20.6495C52.6945 21.4406 53.1378 22.5125 53.1378 23.63V76.37C53.1378 76.9258 53.028 77.4762 52.8146 77.9895C52.6013 78.5028 52.2887 78.9689 51.8947 79.3611C51.5007 79.7532 51.0331 80.0636 50.5188 80.2745C50.0045 80.4854 49.4536 80.5926 48.8978 80.59ZM39.1878 20.91C38.4664 20.91 37.7745 21.1965 37.2644 21.7066C36.7543 22.2167 36.4678 22.9086 36.4678 23.63V76.37C36.4678 77.0914 36.7543 77.7832 37.2644 78.2933C37.7745 78.8034 38.4664 79.09 39.1878 79.09H48.9278C49.2845 79.09 49.6377 79.0195 49.9672 78.8827C50.2966 78.7459 50.5958 78.5454 50.8476 78.2927C51.0993 78.04 51.2988 77.7401 51.4344 77.4101C51.57 77.0802 51.6391 76.7267 51.6378 76.37V23.63C51.6391 23.2732 51.57 22.9198 51.4344 22.5898C51.2988 22.2599 51.0993 21.96 50.8476 21.7072C50.5958 21.4545 50.2966 21.254 49.9672 21.1172C49.6377 20.9804 49.2845 20.91 48.9278 20.91H39.1878Z" fill="#333333"/>
<path d="M52.3577 29.69H45.6377C45.4388 29.69 45.248 29.611 45.1074 29.4703C44.9667 29.3297 44.8877 29.1389 44.8877 28.94C44.8877 28.7411 44.9667 28.5503 45.1074 28.4097C45.248 28.269 45.4388 28.19 45.6377 28.19H52.3577C52.5566 28.19 52.7473 28.269 52.888 28.4097C53.0287 28.5503 53.1077 28.7411 53.1077 28.94C53.1077 29.1389 53.0287 29.3297 52.888 29.4703C52.7473 29.611 52.5566 29.69 52.3577 29.69Z" fill="#333333"/>
<path d="M52.3577 50.75H45.6377C45.4388 50.75 45.248 50.671 45.1074 50.5303C44.9667 50.3897 44.8877 50.1989 44.8877 50C44.8877 49.8011 44.9667 49.6103 45.1074 49.4697C45.248 49.329 45.4388 49.25 45.6377 49.25H52.3577C52.5566 49.25 52.7473 49.329 52.888 49.4697C53.0287 49.6103 53.1077 49.8011 53.1077 50C53.1077 50.1989 53.0287 50.3897 52.888 50.5303C52.7473 50.671 52.5566 50.75 52.3577 50.75Z" fill="#333333"/>
<path d="M52.3577 71.81H45.6377C45.4388 71.81 45.248 71.731 45.1074 71.5903C44.9667 71.4497 44.8877 71.2589 44.8877 71.06C44.8877 70.8611 44.9667 70.6703 45.1074 70.5297C45.248 70.389 45.4388 70.31 45.6377 70.31H52.3577C52.5566 70.31 52.7473 70.389 52.888 70.5297C53.0287 70.6703 53.1077 70.8611 53.1077 71.06C53.1077 71.2589 53.0287 71.4497 52.888 71.5903C52.7473 71.731 52.5566 71.81 52.3577 71.81Z" fill="#333333"/>
<path d="M52.3578 36.71H49.2778C49.0789 36.71 48.8881 36.631 48.7475 36.4904C48.6068 36.3497 48.5278 36.1589 48.5278 35.96C48.5278 35.7611 48.6068 35.5703 48.7475 35.4297C48.8881 35.289 49.0789 35.21 49.2778 35.21H52.3578C52.5568 35.21 52.7475 35.289 52.8882 35.4297C53.0288 35.5703 53.1078 35.7611 53.1078 35.96C53.1078 36.1589 53.0288 36.3497 52.8882 36.4904C52.7475 36.631 52.5568 36.71 52.3578 36.71Z" fill="#333333"/>
<path d="M52.3578 43.73H49.2778C49.0789 43.73 48.8881 43.651 48.7475 43.5103C48.6068 43.3697 48.5278 43.1789 48.5278 42.98C48.5278 42.7811 48.6068 42.5903 48.7475 42.4496C48.8881 42.309 49.0789 42.23 49.2778 42.23H52.3578C52.5568 42.23 52.7475 42.309 52.8882 42.4496C53.0288 42.5903 53.1078 42.7811 53.1078 42.98C53.1078 43.1789 53.0288 43.3697 52.8882 43.5103C52.7475 43.651 52.5568 43.73 52.3578 43.73Z" fill="#333333"/>
<path d="M52.3578 57.77H49.2778C49.0789 57.77 48.8881 57.691 48.7475 57.5504C48.6068 57.4097 48.5278 57.2189 48.5278 57.02C48.5278 56.8211 48.6068 56.6303 48.7475 56.4897C48.8881 56.349 49.0789 56.27 49.2778 56.27H52.3578C52.5568 56.27 52.7475 56.349 52.8882 56.4897C53.0288 56.6303 53.1078 56.8211 53.1078 57.02C53.1078 57.2189 53.0288 57.4097 52.8882 57.5504C52.7475 57.691 52.5568 57.77 52.3578 57.77Z" fill="#333333"/>
<path d="M52.3578 64.79H49.2778C49.0789 64.79 48.8881 64.711 48.7475 64.5703C48.6068 64.4297 48.5278 64.2389 48.5278 64.04C48.5278 63.8411 48.6068 63.6503 48.7475 63.5096C48.8881 63.369 49.0789 63.29 49.2778 63.29H52.3578C52.5568 63.29 52.7475 63.369 52.8882 63.5096C53.0288 63.6503 53.1078 63.8411 53.1078 64.04C53.1078 64.2389 53.0288 64.4297 52.8882 64.5703C52.7475 64.711 52.5568 64.79 52.3578 64.79Z" fill="#333333"/>
<path d="M65.0382 71.15C64.9393 71.1513 64.8412 71.1328 64.7495 71.0956C64.6579 71.0584 64.5747 71.0032 64.5048 70.9333C64.4349 70.8634 64.3797 70.7802 64.3425 70.6886C64.3053 70.597 64.2868 70.4988 64.2882 70.4V29.6C64.2882 29.4011 64.3672 29.2103 64.5078 29.0696C64.6485 28.929 64.8392 28.85 65.0382 28.85C65.2371 28.85 65.4278 28.929 65.5685 29.0696C65.7091 29.2103 65.7882 29.4011 65.7882 29.6V70.4C65.7882 70.5989 65.7091 70.7897 65.5685 70.9303C65.4278 71.071 65.2371 71.15 65.0382 71.15Z" fill="#1A2AB2"/>
<path d="M61.3878 33.21C61.2891 33.2122 61.1909 33.1938 61.0996 33.1559C61.0083 33.118 60.926 33.0615 60.8578 32.99C60.7871 32.9211 60.7308 32.8386 60.6924 32.7476C60.654 32.6566 60.6343 32.5588 60.6343 32.46C60.6343 32.3612 60.654 32.2634 60.6924 32.1724C60.7308 32.0814 60.7871 31.9989 60.8578 31.93L64.5978 28.19C64.6668 28.1192 64.7492 28.063 64.8402 28.0246C64.9312 27.9862 65.029 27.9664 65.1278 27.9664C65.2266 27.9664 65.3244 27.9862 65.4154 28.0246C65.5065 28.063 65.5889 28.1192 65.6578 28.19L69.1878 31.75C69.2792 31.891 69.3206 32.0585 69.3055 32.2258C69.2903 32.3931 69.2193 32.5505 69.1041 32.6727C68.9888 32.7949 68.8358 32.8748 68.6697 32.8997C68.5036 32.9246 68.3339 32.893 68.1878 32.81L65.1878 29.81L61.9178 33C61.8478 33.0683 61.7648 33.122 61.6739 33.1581C61.5829 33.1941 61.4857 33.2118 61.3878 33.21Z" fill="#1A2AB2"/>
<path d="M64.9478 72C64.8491 72.0022 64.7509 71.9838 64.6596 71.9459C64.5683 71.908 64.486 71.8515 64.4178 71.78L60.8578 68.22C60.7871 68.151 60.7308 68.0686 60.6924 67.9776C60.654 67.8866 60.6343 67.7888 60.6343 67.69C60.6343 67.5912 60.654 67.4934 60.6924 67.4024C60.7308 67.3114 60.7871 67.2289 60.8578 67.16C60.9985 67.0195 61.1891 66.9407 61.3878 66.9407C61.5866 66.9407 61.7772 67.0195 61.9178 67.16L64.9178 70.16L68.1878 67C68.2513 66.9074 68.3348 66.8303 68.4321 66.7743C68.5294 66.7183 68.638 66.6849 68.75 66.6764C68.8619 66.668 68.9743 66.6848 69.0789 66.7256C69.1835 66.7664 69.2776 66.8302 69.3542 66.9122C69.4309 66.9942 69.4881 67.0924 69.5218 67.1995C69.5554 67.3066 69.5646 67.4199 69.5486 67.531C69.5327 67.6421 69.492 67.7482 69.4295 67.8415C69.3671 67.9348 69.2845 68.0129 69.1878 68.07L65.4478 71.81C65.3107 71.9335 65.1324 72.0012 64.9478 72Z" fill="#1A2AB2"/>
</svg>
