<svg width="21" height="20" viewBox="0 0 21 20" fill="none" xmlns="http://www.w3.org/2000/svg">
<path d="M11.3078 1.49433L13.7575 6.40462L19.2324 7.1934C19.3981 7.21738 19.5536 7.28673 19.6816 7.39362C19.8095 7.50051 19.9046 7.64067 19.9563 7.79827C20.0079 7.95586 20.0139 8.1246 19.9737 8.28541C19.9335 8.44623 19.8486 8.5927 19.7287 8.70828L15.769 12.532L16.7035 17.9281C16.7379 18.0952 16.7233 18.2685 16.6614 18.4277C16.5995 18.5868 16.4928 18.7251 16.354 18.8262C16.2153 18.9272 16.0501 18.9869 15.8781 18.9981C15.7062 19.0093 15.5346 18.9715 15.3836 18.8893L10.4842 16.3401L5.60058 18.8893C5.45003 18.967 5.28038 19.0011 5.11111 18.9878C4.94185 18.9744 4.77982 18.9141 4.64365 18.8137C4.50747 18.7133 4.40267 18.577 4.34127 18.4203C4.27987 18.2637 4.26436 18.0931 4.29653 17.9281L5.23101 12.532L1.27134 8.70828C1.15139 8.5927 1.0665 8.44623 1.02628 8.28541C0.98606 8.1246 0.992104 7.95586 1.04373 7.79827C1.09536 7.64067 1.19051 7.50051 1.31843 7.39362C1.44636 7.28673 1.60195 7.21738 1.76762 7.1934L7.24252 6.40462L9.69223 1.49433C9.76715 1.34581 9.88242 1.22089 10.0251 1.13357C10.1678 1.04625 10.3322 1 10.5 1C10.6678 1 10.8322 1.04625 10.9749 1.13357C11.1176 1.22089 11.2328 1.34581 11.3078 1.49433V1.49433Z" stroke="#1A2AB2" stroke-width="1.5" stroke-linecap="round" stroke-linejoin="round"/>
</svg>
