<svg width="24" height="26" viewBox="0 0 24 26" fill="none" xmlns="http://www.w3.org/2000/svg">
<path d="M19.8493 4.89494C19.0982 4.18503 18.1802 3.74133 17.1787 3.74133H9.6674C9.16665 3.74133 8.6659 3.83007 8.16515 4.00755C7.6644 4.18503 7.24711 4.53998 6.91327 4.89494C6.57944 5.33863 6.32906 5.78233 6.07869 6.22602C5.91177 6.75846 5.82831 7.20215 5.82831 7.73459V15.7211C5.82831 16.2535 5.91177 16.786 6.07869 17.2297C6.2456 17.7621 6.57944 18.2058 6.91327 18.5607C7.24711 18.9157 7.6644 19.2707 8.16515 19.4481C8.6659 19.6256 9.08319 19.7143 9.58394 19.7143H17.9298C18.2636 19.7143 18.5975 19.8031 18.9313 19.8918C19.0982 19.9806 19.1817 20.0693 19.2651 20.158C19.3486 20.2468 19.3486 20.4243 19.3486 20.6017C19.3486 20.7792 19.2651 20.868 19.1817 20.9567C19.0982 21.0454 19.0148 21.1342 18.8478 21.2229L18.5975 21.3116C18.514 21.4891 18.2636 21.4891 18.0133 21.4891H8.24861C7.74786 21.4891 7.16365 21.4004 6.74635 21.1342C6.2456 20.9567 5.82831 20.6017 5.41102 20.2468C5.07719 19.8918 4.74335 19.3594 4.57643 18.827C4.40952 18.2945 4.2426 17.7621 4.2426 17.2297V8.0008C4.2426 7.64585 3.99222 7.29089 3.65839 7.29089C3.32456 7.29089 2.99072 7.64585 2.99072 8.0008V17.2297C2.99072 17.9396 3.15764 18.6495 3.40802 19.3594C3.65839 20.0693 4.07568 20.6905 4.57643 21.1342C5.07719 21.6666 5.66139 22.0216 6.2456 22.3765C6.91327 22.6427 7.58094 22.8202 8.24861 22.8202H18.0133C18.3471 22.8202 18.7644 22.7315 19.0982 22.6427L19.3486 22.554C19.7659 22.4653 20.0997 22.199 20.3501 21.8441C20.6005 21.4891 20.7674 21.1342 20.7674 20.6905C20.7674 20.2468 20.6839 19.8031 20.4335 19.4481C20.1832 19.0932 19.9328 18.827 19.5155 18.6495C19.0148 18.472 18.514 18.3833 18.0133 18.3833H9.6674C9.33357 18.3833 8.99973 18.2945 8.6659 18.2058C8.33207 18.0283 8.08169 17.8508 7.83132 17.5846C7.58094 17.3184 7.41402 17.0522 7.24711 16.6972C7.16365 16.5197 7.08019 16.1648 7.08019 15.8098V7.82333C7.08019 7.46837 7.16365 7.11341 7.24711 6.75846C7.41402 6.4035 7.58094 6.13729 7.83132 5.87107C8.08169 5.60485 8.33207 5.42737 8.6659 5.2499C8.99973 5.07242 9.33357 5.07242 9.6674 5.07242H17.1787C17.8463 5.07242 18.514 5.33863 19.0148 5.87107C19.5155 6.4035 19.6824 7.02468 19.6824 7.73459V15.7211C19.6824 16.0761 19.9328 16.431 20.3501 16.431C20.7674 16.431 21.0178 16.1648 21.0178 15.7211V7.73459C20.9343 6.66972 20.517 5.69359 19.8493 4.89494Z" fill="#1A2AB2"/>
<path d="M17.0116 7.91199H9.75068C9.41684 7.91199 9.08301 8.1782 9.08301 8.6219C9.08301 9.06559 9.33338 9.33181 9.75068 9.33181H17.095C17.4289 9.33181 17.7627 9.06559 17.7627 8.6219C17.7627 8.1782 17.3454 7.91199 17.0116 7.91199Z" fill="#1A2AB2"/>
<path d="M17.6792 11.8165C17.6792 11.4615 17.4289 11.1066 17.0116 11.1066H9.75068C9.41684 11.1066 9.08301 11.3728 9.08301 11.8165C9.08301 12.2602 9.33338 12.5264 9.75068 12.5264H17.095C17.3454 12.4377 17.6792 12.1714 17.6792 11.8165Z" fill="#1A2AB2"/>
<path d="M9.75068 14.3011C9.41684 14.3011 9.08301 14.5674 9.08301 15.0111C9.08301 15.4548 9.33338 15.721 9.75068 15.721H13.8401C14.174 15.721 14.5078 15.4548 14.5078 15.0111C14.5078 14.5674 14.2574 14.3011 13.8401 14.3011H9.75068Z" fill="#1A2AB2"/>
</svg>
