<svg width="24" height="24" viewBox="0 0 24 24" fill="none" xmlns="http://www.w3.org/2000/svg">
<path d="M19.8223 11.1203L11.7666 3.17526C11.5296 2.94158 11.1347 2.94158 10.8978 3.17526C10.6609 3.40893 10.6609 3.7984 10.8978 4.03207L17.9268 10.9645H3.63182C3.31591 10.9645 3 11.1982 3 11.5876C3 11.9771 3.23693 12.2108 3.63182 12.2108H18.0058L11.1347 18.9874C10.8978 19.2211 10.8978 19.6105 11.1347 19.8442C11.2137 19.9221 11.3717 20 11.5296 20C11.6876 20 11.8455 19.9221 11.9245 19.8442L19.8223 12.055C20.0592 11.6655 20.0592 11.2761 19.8223 11.1203Z" fill="#7EC1FF"/>
</svg>
