<svg width="12" height="12" viewBox="0 0 12 12" fill="none" xmlns="http://www.w3.org/2000/svg">
<path d="M9.91115 5.56014L5.88328 1.58763C5.76481 1.47079 5.56736 1.47079 5.4489 1.58763C5.33043 1.70447 5.33043 1.8992 5.4489 2.01604L8.96341 5.48225H1.81591C1.65796 5.48225 1.5 5.59908 1.5 5.79381C1.5 5.98855 1.61847 6.10538 1.81591 6.10538H9.0029L5.56736 9.4937C5.4489 9.61054 5.4489 9.80527 5.56736 9.92211C5.60685 9.96105 5.68583 10 5.76481 10C5.84379 10 5.92276 9.96105 5.96225 9.92211L9.91115 6.02749C10.0296 5.83276 10.0296 5.63803 9.91115 5.56014Z" fill="#6C6B6B"/>
</svg>
