<svg width="24" height="24" viewBox="0 0 24 24" fill="none" xmlns="http://www.w3.org/2000/svg">
<path d="M14.7361 19C12.4667 19 9.92212 17.9756 7.9965 15.9951C6.48352 14.4927 5.45195 12.5122 5.10809 10.6C4.76423 8.48293 5.24563 6.63902 6.48352 5.40976C6.62107 5.27317 6.82738 5.13659 7.0337 5.06829C7.17124 5 7.37756 5 7.58387 5C7.79019 5 7.9965 5.13659 8.20282 5.20488C8.40914 5.27317 8.54668 5.47805 8.61545 5.68293L10.4723 8.14146C10.7474 8.55122 10.8162 8.96098 10.7474 9.37073C10.7474 9.78049 10.5411 10.1902 10.1972 10.5317L9.99089 10.7366C9.7158 11.0098 9.50949 11.4195 9.50949 11.8976C9.50949 12.3073 9.64703 12.7171 9.99089 13.0585L11.0225 14.0829C11.6414 14.6976 12.673 14.6976 13.2919 14.0829L13.4983 13.878C13.7733 13.6049 14.186 13.4 14.5986 13.3317C15.0112 13.2634 15.4239 13.4 15.8365 13.6049L18.3811 15.5171C18.5186 15.5854 18.6561 15.722 18.7937 15.9268C18.9312 16.1317 19 16.3366 19 16.5415C19 16.7463 19 16.9512 18.9312 17.1561C18.8625 17.361 18.7249 17.5659 18.5874 17.7024C17.6246 18.522 16.2491 19 14.7361 19ZM7.44633 6.02439C7.37756 6.02439 7.37756 6.02439 7.30879 6.02439C7.24001 6.02439 7.24001 6.09268 7.17124 6.09268C6.13966 7.04878 5.7958 8.61951 6.07089 10.3951C6.34598 12.1707 7.30879 13.9463 8.68422 15.2439C11.5726 18.1122 15.8365 18.7951 17.8997 16.7463C17.9684 16.678 17.9684 16.678 17.9684 16.6098C17.9684 16.5415 17.9684 16.4732 17.9684 16.4732C17.9684 16.4049 17.9684 16.3366 17.8997 16.3366C17.8997 16.2683 17.8309 16.2683 17.7621 16.2L15.2863 14.3561C15.1488 14.2878 14.9425 14.2195 14.7361 14.2878C14.5298 14.2878 14.3923 14.4244 14.186 14.561L13.9797 14.7659C12.9481 15.722 11.2288 15.722 10.266 14.7659L9.2344 13.7415C8.82177 13.1951 8.54668 12.5122 8.54668 11.8293C8.54668 11.1463 8.82177 10.4634 9.30317 9.98537L9.50949 9.78049C9.64703 9.6439 9.7158 9.43902 9.78457 9.23415C9.78457 9.02927 9.78457 8.82439 9.64703 8.6878L7.79019 6.22927C7.72142 6.16098 7.65265 6.09268 7.65265 6.09268C7.58387 6.02439 7.5151 6.02439 7.44633 6.02439Z" fill="#1A2AB2"/>
</svg>
