<svg width="44" height="43" viewBox="0 0 44 43" fill="none" xmlns="http://www.w3.org/2000/svg">
<rect x="0.5" width="43" height="43" rx="21.5" fill="white"/>
<path d="M13.9 30.5C13.5 30.5 13.2 30.3 13 30C12.7 29.6 12.7 29 13 28.6C14.1 27 13.6 26.3 13.3 25.6C12.1 24.3 11.5 22.6 11.5 20.9C11.5 16 16.4 12 22.5 12C28.5 12 33.5 16 33.5 20.9C33.5 25.8 28.6 29.8 22.5 29.8C21.4 29.8 20.4 29.7 19.3 29.4C18.9 29.3 18.6 28.9 18.7 28.5C18.8 28.1 19.2 27.8 19.5 27.9H19.6C20.5 28.1 21.5 28.2 22.4 28.2C27.6 28.2 31.9 24.9 31.9 20.8C31.9 16.7 27.7 13.4 22.4 13.4C17.2 13.4 12.9 16.7 12.9 20.8C12.9 22.2 13.4 23.5 14.3 24.7C15 25.8 15.4 27 14.4 28.7C14.6 28.6 14.9 28.6 15.1 28.5C15.5 28.4 15.9 28.6 16 29C16.1 29.4 15.9 29.8 15.5 29.9C15 30 14.5 30.2 14 30.3C14.1 30.5 14 30.5 13.9 30.5Z" fill="#1A2AB2"/>
<path d="M18.1 22.1C18.3 22.1 18.5 22 18.7 21.9C18.9 21.8 19 21.6 19.1 21.4C19.2 21.2 19.2 21 19.2 20.8C19.2 20.6 19.1 20.4 18.9 20.2C18.7 20 18.5 19.9 18.3 19.8C18.1 19.8 17.9 19.8 17.7 19.9C17.5 20 17.3 20.1 17.2 20.3C17 20.5 17 20.7 17 20.9C17 21.2 17.1 21.5 17.3 21.7C17.5 21.9 17.8 22.1 18.1 22.1Z" fill="#1A2AB2"/>
<path d="M22.4002 22.1C22.6002 22.1 22.8002 22 23.0002 21.9C23.2002 21.8 23.3002 21.6 23.4002 21.4C23.5002 21.2 23.5002 20.9 23.5002 20.7C23.5002 20.5 23.4002 20.3 23.2002 20.1C23.0002 19.9 22.8002 19.8 22.6002 19.8C22.4002 19.8 22.2002 19.8 22.0002 19.9C21.7002 20 21.6002 20.1 21.4002 20.3C21.3002 20.5 21.2002 20.7 21.2002 20.9C21.2002 21.2 21.3002 21.5 21.5002 21.7C21.8002 21.9 22.1002 22.1 22.4002 22.1Z" fill="#1A2AB2"/>
<path d="M26.6 22.0999C26.8 22.0999 27 21.9999 27.2 21.8999C27.4 21.7999 27.5 21.5999 27.6 21.3999C27.7 21.1999 27.7 20.9999 27.7 20.7999C27.7 20.5999 27.6 20.3999 27.4 20.1999C27.2 19.9999 27 19.8999 26.8 19.8999C26.6 19.8999 26.4 19.8999 26.2 19.9999C26 20.0999 25.8 20.1999 25.7 20.3999C25.6 20.4999 25.5 20.6999 25.5 20.8999C25.5 21.1999 25.6 21.4999 25.8 21.6999C26.1 21.8999 26.3 22.0999 26.6 22.0999Z" fill="#1A2AB2"/>
</svg>
