<svg width="24" height="24" viewBox="0 0 24 24" fill="none" xmlns="http://www.w3.org/2000/svg">
<path d="M16.3222 8.17068C15.2316 6.99541 13.8055 6.23988 12.2116 6.07198C10.7016 5.82013 9.10764 6.23988 7.76539 7.16331C6.42315 8.08674 5.50036 9.42991 5.1648 11.0249C4.82924 12.536 4.99702 14.215 5.75203 15.5581C6.50704 16.9852 7.76539 18.0766 9.27542 18.5803C10.0304 18.8321 10.7854 19 11.4566 19C12.2955 19 13.0505 18.8321 13.8894 18.5803C15.3994 17.9926 16.5739 16.9013 17.3289 15.3902L17.4128 15.3063C17.4128 15.2223 17.4967 15.1384 17.4967 15.0544C17.8322 14.215 18 13.3755 18 12.536C18 10.857 17.4128 9.34596 16.3222 8.17068ZM16.7416 12.452C16.7416 13.1236 16.5739 13.8792 16.3222 14.4668L16.1544 14.8026C15.5672 15.9779 14.5605 16.8173 13.386 17.321C12.2116 17.8247 10.8693 17.8247 9.69487 17.405C8.5204 16.9852 7.51372 16.0618 6.8426 14.9705C6.25537 13.8792 6.08759 12.536 6.42315 11.2768C6.67482 10.0175 7.42983 8.92622 8.5204 8.17068C9.4432 7.58305 10.4499 7.24725 11.5405 7.24725C11.7082 7.24725 11.9599 7.24725 12.1277 7.24725C13.386 7.41515 14.5605 8.00279 15.3994 9.01017C16.2383 9.9336 16.7416 11.1928 16.7416 12.452Z" fill="#1A2AB2"/>
<path d="M12.128 12.2004V9.03838C12.128 8.70259 11.8763 8.45074 11.4569 8.45074C11.1213 8.45074 10.8696 8.70259 10.8696 9.03838V12.4523C10.8696 12.6202 10.9535 12.7881 11.0374 12.872L13.1347 14.9707C13.2186 15.0547 13.3863 15.1386 13.5541 15.1386C13.7219 15.1386 13.8897 15.0547 13.9736 14.9707C14.2252 14.7189 14.2252 14.2991 13.9736 14.0473L12.128 12.2004Z" fill="#1A2AB2"/>
</svg>
