<svg width="24" height="24" viewBox="0 0 24 24" fill="none" xmlns="http://www.w3.org/2000/svg">
<path d="M14.5613 12.4036L14.7755 10.9136C14.7896 10.8133 14.7833 10.711 14.7571 10.6135C14.7309 10.5161 14.6854 10.4258 14.6237 10.3489C14.562 10.272 14.4854 10.2103 14.3994 10.168C14.3134 10.1257 14.2198 10.1037 14.1252 10.1037H12.2981V8.22668C12.2981 7.43331 12.6594 6.66206 13.8206 6.66206H14.3368C14.4236 6.66279 14.5098 6.6451 14.5902 6.61C14.6706 6.5749 14.7438 6.52309 14.8054 6.45756C14.8671 6.39203 14.916 6.31408 14.9494 6.22819C14.9828 6.14231 15 6.05019 15 5.95715V4.80719C14.9999 4.63513 14.9411 4.46903 14.8346 4.34021C14.7282 4.21139 14.5814 4.12873 14.4219 4.10781C13.9193 4.04177 13.4135 4.00578 12.9071 4C10.7703 4 9.3742 5.38217 9.3742 7.89772V10.1092H7.65806C7.48442 10.1092 7.31782 10.1827 7.19456 10.3137C7.07129 10.4447 7.00136 10.6226 7 10.8086V12.2985C7 12.4855 7.06933 12.6648 7.19275 12.797C7.31616 12.9292 7.48353 13.0035 7.65806 13.0035H9.3742V19.2979C9.37488 19.4843 9.4445 19.6629 9.56784 19.7945C9.69118 19.9261 9.85817 20 10.0323 20H11.6452C11.8192 20 11.9862 19.9261 12.1096 19.7945C12.2329 19.6629 12.3025 19.4843 12.3032 19.2979V13.0007H13.9161C14.0723 12.9994 14.223 12.9386 14.3412 12.8292C14.4594 12.7198 14.5374 12.5689 14.5613 12.4036Z" fill="#6C6B6B"/>
</svg>
