<svg width="43" height="43" viewBox="0 0 43 43" fill="none" xmlns="http://www.w3.org/2000/svg">
<rect width="43" height="43" rx="21.5" fill="white"/>
<path d="M21 12C16 12 12 16 12 21C12 26 16 30 21 30C26 30 30 26 30 21C30 16 25.9167 12 21 12ZM21 28.6667C16.75 28.6667 13.25 25.25 13.25 20.9167C13.25 16.5833 16.6667 13.1667 21 13.1667C25.3333 13.1667 28.6667 16.6667 28.6667 21C28.6667 25.3333 25.25 28.6667 21 28.6667Z" fill="#1A2AB2"/>
<path d="M20.9998 25.5C20.6665 25.5 20.4165 25.75 20.4165 26.0833C20.4165 26.4167 20.6665 26.6667 20.9998 26.6667C21.3332 26.6667 21.5832 26.4167 21.5832 26.0833C21.4998 25.75 21.2498 25.5 20.9998 25.5Z" fill="#1A2AB2"/>
<path d="M23.3332 16.4999C22.6665 15.9166 21.7498 15.5833 20.8332 15.5833C19.9165 15.5833 18.9998 15.9999 18.4165 16.6666C17.7498 17.3333 17.4165 18.2499 17.4165 19.1666C17.4165 19.4999 17.6665 19.8333 18.0832 19.7499C18.4165 19.7499 18.6665 19.4166 18.6665 19.0833C18.6665 18.4999 18.9165 17.9166 19.3332 17.4999C19.7498 17.0833 20.3332 16.8333 20.9165 16.8333C21.4998 16.8333 22.0832 16.9999 22.4998 17.4166C22.9165 17.8333 23.2498 18.3333 23.2498 18.9999C23.3332 19.9999 22.8332 20.7499 21.9165 21.2499C20.8332 21.7499 20.3332 22.6666 20.3332 23.8333V24.3333C20.3332 24.6666 20.5832 24.9999 20.9998 24.9999C21.4165 24.9999 21.6665 24.7499 21.6665 24.3333V23.8333C21.6665 23.1666 21.9165 22.7499 22.5832 22.4166C23.9165 21.7499 24.6665 20.4999 24.5832 18.9999C24.4165 17.9166 23.9998 17.0833 23.3332 16.4999Z" fill="#1A2AB2"/>
</svg>
