<svg width="24" height="24" viewBox="0 0 24 24" fill="none" xmlns="http://www.w3.org/2000/svg">
<path d="M16.5537 6.29748C16.3075 6.29748 16.0614 6.37953 15.8973 6.54363C15.7332 6.70773 15.5691 6.87183 15.405 7.11799C15.3229 7.36414 15.3229 7.6103 15.3229 7.85645C15.405 8.1026 15.487 8.34876 15.6511 8.51286C15.8152 8.67696 16.0614 8.84107 16.3075 8.84107C16.5537 8.92312 16.7998 8.84107 17.046 8.75901C17.2921 8.67696 17.4562 8.51286 17.6204 8.26671C17.7845 8.1026 17.8665 7.85645 17.8665 7.6103C17.8665 7.28209 17.7024 6.95389 17.5383 6.70773C17.128 6.37953 16.8819 6.29748 16.5537 6.29748Z" fill="#6C6B6B"/>
<path d="M15.241 20H8.75897C6.13333 20 4 17.8667 4 15.241V8.75897C4 6.13333 6.13333 4 8.75897 4H15.241C17.8667 4 20 6.13333 20 8.75897V15.241C20 17.8667 17.8667 20 15.241 20ZM8.75897 5.23077C6.78974 5.23077 5.23077 6.78974 5.23077 8.75897V15.241C5.23077 17.2103 6.78974 18.7692 8.75897 18.7692H15.241C17.2103 18.7692 18.7692 17.2103 18.7692 15.241V8.75897C18.7692 6.78974 17.2103 5.23077 15.241 5.23077H8.75897Z" fill="#6C6B6B"/>
<path d="M12.041 15.8974C9.82564 15.8974 8.10256 14.1744 8.10256 12.041C8.10256 9.90769 9.82564 8.10256 12.041 8.10256C14.2564 8.10256 15.9795 9.82564 15.9795 12.041C15.9795 14.2564 14.1744 15.8974 12.041 15.8974ZM12.041 9.33333C10.5641 9.33333 9.33333 10.5641 9.33333 12.041C9.33333 13.5179 10.5641 14.6667 12.041 14.6667C13.5179 14.6667 14.6667 13.4359 14.6667 12.041C14.6667 10.6462 13.4359 9.33333 12.041 9.33333Z" fill="#6C6B6B"/>
</svg>
