<svg width="211" height="38" viewBox="0 0 211 38" fill="none" xmlns="http://www.w3.org/2000/svg">
<path fill-rule="evenodd" clip-rule="evenodd" d="M190.249 9.88741H186.365V32.3963H190.249V9.88741ZM125.719 10.6539H121.497L128.705 32.3963H132.573L137.615 16.1184L142.639 32.3963H146.523L153.732 10.6539H149.493L144.918 25.1598L144.469 27.0622H144.404L144.052 25.272L139.717 10.6704H135.495L131.145 25.3032L130.824 27.0622H130.759L130.342 25.3528L125.719 10.6539ZM95.1389 15.9751H98.8328V18.5226C99.1667 17.9123 99.6164 17.3724 100.157 16.9327C100.737 16.4597 101.397 16.0948 102.107 15.8556C102.867 15.5964 103.665 15.4665 104.468 15.4714C105.933 15.4714 107.158 15.7833 108.143 16.407C109.154 17.0606 109.93 18.0171 110.36 19.1384C110.852 20.3368 111.098 21.8035 111.098 23.5387V32.3889H107.209V23.6269C107.209 22.0498 106.877 20.8919 106.213 20.153C105.55 19.4141 104.608 19.0434 103.387 19.0409C102.628 19.0369 101.882 19.239 101.23 19.6254C100.545 20.0377 99.989 20.6323 99.6252 21.3422C99.2072 22.1658 99.0003 23.0795 99.0231 24.0019V32.3889H95.1445L95.1389 15.9751ZM70.1459 19.7045C69.4591 18.43 68.4378 17.3647 67.1908 16.6221C65.8888 15.8507 64.3969 15.4549 62.8819 15.4788C61.3598 15.4533 59.8598 15.8435 58.5449 16.607C57.23 17.3705 56.1506 18.478 55.4239 19.8093C54.6977 21.1521 54.3176 22.6533 54.3176 24.1783C54.3176 25.7033 54.6977 27.2045 55.4239 28.5474C56.1454 29.8547 57.2044 30.9467 58.4917 31.7107C59.6946 32.4083 61.0477 32.8098 62.4381 32.8817C63.8285 32.9536 65.2161 32.6939 66.4853 32.1242C67.5376 31.6372 68.4733 30.9322 69.2298 30.0564C69.9415 29.2431 70.4626 28.2825 70.7554 27.2442H66.5167C66.3468 27.6945 66.0816 28.1032 65.7391 28.4426C65.3863 28.7828 64.9607 29.0392 64.4943 29.1925C63.9458 29.3727 63.3707 29.4597 62.7932 29.4499C61.952 29.463 61.1245 29.2359 60.409 28.7955C59.6934 28.3551 59.1197 27.7197 58.7558 26.9648C58.4804 26.4149 58.2976 25.8238 58.2146 25.215H71.1248C71.1341 24.9503 71.1507 24.7114 71.1728 24.5055C71.195 24.2996 71.2042 24.0974 71.2042 23.9063C71.2149 22.4391 70.8507 20.9932 70.1459 19.7045ZM58.3772 22.2208C58.4745 21.8658 58.6121 21.5229 58.7872 21.1988C59.1758 20.457 59.7725 19.8434 60.5049 19.4324C61.1841 19.0734 61.9375 18.8752 62.7063 18.8532C63.4751 18.8312 64.2387 18.986 64.9375 19.3056C65.557 19.5826 66.1001 20.0044 66.5204 20.5353C66.9078 21.019 67.1447 21.6048 67.2019 22.2208H58.3772ZM44.139 32.8925C42.6237 32.9121 41.1319 32.519 39.8249 31.7557C38.5179 30.9925 37.4454 29.8881 36.7235 28.5621C35.9961 27.2196 35.6152 25.7183 35.6152 24.193C35.6152 22.6678 35.9961 21.1664 36.7235 19.8239C37.4394 18.5167 38.4918 17.4224 39.7728 16.6533C41.0897 15.8642 42.602 15.4574 44.139 15.4788C45.4449 15.4603 46.7381 15.7361 47.9216 16.2857C49.0256 16.8048 49.9945 17.5703 50.753 18.5226C51.5139 19.4802 52.0599 20.5889 52.3543 21.7741H48.3944C48.084 20.9337 47.4985 20.2215 46.7321 19.7523C45.9505 19.2911 45.055 19.0562 44.1464 19.074C43.342 19.0746 42.5524 19.2898 41.8599 19.6971C41.1328 20.1196 40.5342 20.7299 40.1274 21.4635C39.6717 22.2957 39.4443 23.2327 39.4681 24.1801C39.4468 25.1273 39.674 26.0637 40.1274 26.8968C40.5322 27.6406 41.1347 28.2593 41.8691 28.6852C42.5617 29.0925 43.3512 29.3077 44.1556 29.3083C44.7661 29.3139 45.3724 29.2093 45.9453 28.9995C46.5002 28.7886 47.0016 28.4585 47.4137 28.0327C47.8621 27.5622 48.1974 26.9966 48.3944 26.3785H52.3432C52.0723 27.6058 51.5352 28.7594 50.7696 29.7587C50.0178 30.7427 49.0416 31.5346 47.9216 32.0691C46.7406 32.6278 45.4466 32.9095 44.139 32.8925ZM86.8922 18.7542V15.9751H90.5825V32.3908H86.8886V29.6337C86.5418 30.3058 86.0611 30.9006 85.4756 31.3817C84.8727 31.875 84.1841 32.2544 83.444 32.5011C82.6421 32.7671 81.8014 32.8994 80.9561 32.8926C79.5469 32.9059 78.1659 32.4995 76.9907 31.7254C75.7948 30.9396 74.8309 29.8509 74.1981 28.5713C73.5298 27.2066 73.1824 25.7084 73.1824 24.1903C73.1824 22.6721 73.5298 21.1739 74.1981 19.8093C74.8357 18.527 75.803 17.4356 77.0018 16.646C78.1686 15.8731 79.5416 15.4665 80.9432 15.4788C81.7947 15.4713 82.6414 15.6067 83.4477 15.8795C84.1871 16.1303 84.8753 16.5114 85.4793 17.0044C86.0644 17.4865 86.5451 18.0818 86.8922 18.7542ZM84.3361 28.6467C85.0765 28.1975 85.6809 27.5573 86.0851 26.7939C86.5179 25.9914 86.739 25.0927 86.7279 24.182C86.7358 23.2839 86.5147 22.3986 86.0851 21.6087C85.6742 20.8452 85.0676 20.2034 84.3268 19.7486C83.5931 19.2932 82.7443 19.0548 81.8796 19.0612C81.0223 19.0528 80.1787 19.2766 79.4393 19.7085C78.6998 20.1404 78.0922 20.7642 77.6815 21.5131C77.2357 22.3342 77.0117 23.2563 77.0314 24.1894C77.0103 25.1354 77.2341 26.071 77.6815 26.906C78.0883 27.6563 78.7006 28.2764 79.4472 28.6944C80.1896 29.1094 81.0281 29.3242 81.8796 29.3175C82.7453 29.3264 83.5962 29.094 84.3361 28.6467ZM169.15 19.8093C168.413 18.4952 167.334 17.4026 166.027 16.646C164.665 15.8809 163.128 15.4789 161.564 15.4789C160.001 15.4789 158.464 15.8809 157.102 16.646C155.797 17.4002 154.723 18.4937 153.996 19.8093C153.261 21.1538 152.876 22.6599 152.876 24.1903C152.876 25.7207 153.261 27.2268 153.996 28.5713C154.729 29.8803 155.802 30.9695 157.102 31.7254C158.446 32.5083 159.978 32.9119 161.535 32.8926C163.108 32.9147 164.659 32.5147 166.023 31.7346C167.332 30.9845 168.411 29.8934 169.144 28.5786C169.885 27.2347 170.273 25.7267 170.273 24.194C170.273 22.6612 169.885 21.1532 169.144 19.8093H169.15ZM165.794 26.8141C165.391 27.5647 164.793 28.1938 164.062 28.6356C163.507 28.9711 162.889 29.1907 162.246 29.2809C161.603 29.3711 160.949 29.3301 160.322 29.1604C159.696 28.9907 159.111 28.6957 158.602 28.2936C158.094 27.8915 157.674 27.3906 157.366 26.8215C156.95 26.0076 156.733 25.1073 156.733 24.194C156.733 23.2806 156.95 22.3803 157.366 21.5664C157.77 20.8087 158.372 20.1736 159.108 19.7284C159.859 19.2891 160.714 19.0575 161.585 19.0575C162.456 19.0575 163.311 19.2891 164.062 19.7284C164.794 20.1758 165.392 20.8105 165.794 21.5664C166.212 22.3786 166.429 23.2779 166.429 24.1903C166.429 25.1026 166.212 26.0019 165.794 26.8141ZM177.393 15.9751H173.668L173.682 32.3963H177.561V24.761C177.531 23.7477 177.72 22.7399 178.115 21.8054C178.443 21.0414 178.99 20.3909 179.689 19.9361C180.391 19.5017 181.205 19.2795 182.032 19.2965H183.589V15.9659H181.824C181.171 15.9604 180.524 16.0854 179.921 16.3335C179.358 16.5677 178.849 16.9157 178.427 17.3555C177.99 17.8202 177.64 18.3586 177.393 18.9454V15.9751ZM207.138 16.9492V9.90396H211V32.3908H207.306V29.6337C206.937 30.2542 206.477 30.8166 205.941 31.3026C205.379 31.8039 204.729 32.1966 204.022 32.4606C203.246 32.7546 202.421 32.9011 201.59 32.8925C200.136 32.9139 198.707 32.5114 197.48 31.7346C196.266 30.9558 195.284 29.8656 194.64 28.5786C193.948 27.2177 193.595 25.7108 193.613 24.1857C193.595 22.6624 193.942 21.1567 194.623 19.7927C195.262 18.5013 196.245 17.4096 197.466 16.6368C198.715 15.8561 200.165 15.4538 201.64 15.4788C202.456 15.4717 203.266 15.6267 204.022 15.9346C204.719 16.2155 205.362 16.6127 205.925 17.1091C206.436 17.5535 206.873 18.0767 207.217 18.6586L207.138 16.9492ZM204.754 28.6466C205.497 28.1959 206.106 27.5564 206.519 26.7939C206.946 25.9918 207.169 25.0979 207.169 24.1903C207.169 23.2826 206.946 22.3887 206.519 21.5867C206.106 20.8241 205.497 20.1846 204.754 19.7339C204.019 19.2823 203.17 19.0466 202.306 19.0538C201.441 19.0394 200.588 19.2639 199.842 19.7026C199.097 20.1412 198.489 20.7769 198.084 21.5389C197.665 22.3512 197.444 23.251 197.441 24.1644C197.439 25.0778 197.653 25.9789 198.068 26.7939C198.466 27.5566 199.066 28.1971 199.802 28.6466C200.555 29.1044 201.424 29.3402 202.306 29.3267C203.17 29.3339 204.019 29.0982 204.754 28.6466Z" fill="white"/>
<path d="M15.7221 37.7348H15.8982H16.002H16.16H16.2706H16.4195H16.5347L16.6791 37.7236H16.7965L16.9364 37.7101L17.056 37.6966L17.1937 37.6809L17.3133 37.6674L17.4487 37.6495L17.5684 37.6337L17.7015 37.6135L17.8234 37.5956L17.9543 37.5731L18.0739 37.5529L18.2071 37.5282L18.3267 37.5057L18.4553 37.481L18.575 37.4563L18.7036 37.4271L18.8232 37.4001L18.9519 37.3709L19.0692 37.344L19.1956 37.3103L19.3153 37.2811L19.4394 37.2474L19.559 37.216L19.6831 37.18L19.8005 37.1441L19.9224 37.1081L20.0398 37.0722L20.1616 37.0318L20.279 36.9936L20.3986 36.9532L20.5137 36.9127L20.6333 36.8701L20.7484 36.8274L20.8681 36.7825L20.9832 36.7398L21.1005 36.6926L21.2134 36.6477L21.3285 36.5983L21.4436 36.5511L21.5564 36.5017L21.6693 36.4523L21.7821 36.4006L21.895 36.349L22.0056 36.2973L22.1184 36.2434L22.2268 36.1895L22.3396 36.1333L22.4389 36.0839L22.6827 35.9559L22.773 35.9065L22.8903 35.8413L22.9874 35.7874L23.1025 35.7223L23.1995 35.6639L23.3146 35.5965L23.4117 35.5381L23.5245 35.4685L23.6193 35.4101L23.7299 35.3382L23.8247 35.2776L23.9353 35.2034L24.0301 35.1405L24.1384 35.0664L24.231 35.0013L24.3393 34.9249L24.4296 34.8598L24.5357 34.7812L24.626 34.716L24.732 34.6352L24.8223 34.5678L24.9261 34.4847L25.0142 34.4173L25.1157 34.3319C25.1451 34.3095 25.1744 34.287 25.2015 34.2623C25.2286 34.2376 25.2715 34.2062 25.3053 34.177L25.3888 34.1051L25.4904 34.0197L25.5739 33.9456L25.6732 33.858L25.7544 33.7839L25.8538 33.694L25.935 33.6199L26.0321 33.5256L26.1111 33.4515L26.2081 33.3571L26.2826 33.2808L26.3796 33.1842L26.4541 33.1078L26.5489 33.009C26.5737 32.9843 26.5986 32.9596 26.6211 32.9326L26.7159 32.8315C26.7407 32.8068 26.7633 32.7799 26.7859 32.7552L26.8807 32.6518L26.9484 32.5755L27.0432 32.4677L27.1064 32.3935L27.2012 32.2835L27.2599 32.2094L27.3569 32.0948L27.4111 32.0274L27.5104 31.9039C27.5239 31.8837 27.5397 31.8657 27.5533 31.8477L27.6593 31.7107L27.6864 31.6748C27.8625 31.4502 28.034 31.2008 28.1988 30.9583L28.2191 30.9246C28.2529 30.8774 28.2845 30.828 28.3161 30.7786C28.3477 30.7292 28.341 30.7404 28.3545 30.7202L28.4403 30.5854C28.5486 30.4147 28.6524 30.2418 28.754 30.0666C28.444 29.9752 28.1533 29.8283 27.8963 29.6331L27.1718 29.0828L26.4473 29.6331C25.9775 29.9856 25.4051 30.1763 24.8167 30.1763C24.2282 30.1763 23.6558 29.9856 23.186 29.6331L22.4615 29.0828L21.737 29.6331C21.2674 29.9851 20.6954 30.1755 20.1075 30.1755C19.5195 30.1755 18.9475 29.9851 18.4779 29.6331L17.7534 29.0828L17.0289 29.6331C16.5591 29.9856 15.9867 30.1763 15.3983 30.1763C14.8098 30.1763 14.2374 29.9856 13.7676 29.6331L13.0431 29.0828L12.3186 29.6331C11.8488 29.9856 11.2764 30.1763 10.6879 30.1763C10.0995 30.1763 9.52707 29.9856 9.05725 29.6331L8.33276 29.0828L7.61052 29.6331C7.1407 29.9856 6.56828 30.1763 5.97985 30.1763C5.39142 30.1763 4.819 29.9856 4.34918 29.6331L3.61114 29.0266L2.88665 29.5769C2.6302 29.7717 2.34038 29.9186 2.03125 30.0104C2.13281 30.1856 2.23664 30.3586 2.34497 30.5293C2.37206 30.5742 2.4014 30.6191 2.43074 30.664L2.46911 30.7224L2.5639 30.8684L2.58647 30.9021C2.75123 31.1447 2.9205 31.385 3.0988 31.6186L3.12589 31.6546L3.23197 31.7916C3.24551 31.8095 3.26131 31.8275 3.27485 31.8477L3.37416 31.9713L3.42833 32.0387L3.52312 32.1532L3.58406 32.2273L3.67885 32.3374L3.74205 32.4115L3.83684 32.5193L3.90229 32.5957L3.99934 32.699L4.06705 32.7754L4.1641 32.8765C4.18667 32.9034 4.2115 32.9281 4.23407 32.9528L4.33112 33.0517L4.4056 33.128L4.50039 33.2246C4.52748 33.2493 4.55231 33.2763 4.57713 33.301L4.67418 33.3953L4.75318 33.4694L4.85023 33.5638L4.92922 33.6379L5.03079 33.7277L5.10978 33.8019L5.21135 33.8895L5.29485 33.9636L5.39416 34.0489L5.47993 34.1208L5.58149 34.2062L5.66726 34.2758L5.77108 34.3611L5.8591 34.4285L5.96292 34.5116L6.0532 34.579L6.15702 34.6599L6.2473 34.725L6.35564 34.8036C6.38498 34.8261 6.41432 34.8485 6.44592 34.8688L6.55425 34.9451L6.64679 35.0103L6.75513 35.0844L6.84992 35.1473L6.95825 35.2214L7.05305 35.2821L7.1659 35.3539L7.26069 35.4123L7.37354 35.482L7.47059 35.5404L7.58344 35.6077L7.68275 35.6661L7.79785 35.7313L7.8949 35.7852L8.01227 35.8503L8.10255 35.8997L8.3463 36.0278L8.44335 36.0772L8.55846 36.1333L8.66679 36.1872L8.77739 36.2411L8.89023 36.2928L9.00083 36.3445L9.11368 36.3961L9.22653 36.4455L9.34163 36.495L9.45448 36.5421L9.57185 36.5915L9.68469 36.6365L9.80206 36.6836L9.91716 36.7263L10.0345 36.7712L10.1496 36.8139L10.2693 36.8566L10.3866 36.897L10.5062 36.9374L10.6236 36.9756L10.7455 37.0161L10.8606 37.052L10.9847 37.0879L11.1021 37.1239L11.2262 37.1598L11.3436 37.1913L11.47 37.2249L11.5873 37.2541L11.7137 37.2878L11.8333 37.3148L11.9597 37.344L12.0794 37.3709L12.2103 37.4001L12.3276 37.4248L12.4585 37.4496L12.5782 37.472L12.7091 37.4967L12.8287 37.5169L12.9618 37.5394L13.0815 37.5574L13.2169 37.5776L13.3365 37.5933L13.4719 37.6113L13.5915 37.6248L13.7292 37.6405L13.8488 37.654L13.9888 37.6674H14.1061L14.2506 37.6787H14.3657H14.5124H14.6252H14.7832H14.8871H15.0631H15.7199L15.7221 37.7348Z" fill="white"/>
<path d="M1.85269e-05 22.3938C-0.00170204 24.1039 0.284378 25.8023 0.846388 27.4184C1.01355 27.3953 1.17633 27.3476 1.32938 27.2769C1.52076 27.1895 1.7017 27.081 1.8688 26.9534L2.68357 26.3358L3.49835 26.9534C4.04196 27.3672 4.71245 27.5814 5.39647 27.5599C4.40977 25.6579 3.98886 23.5152 4.18316 21.3835C4.37745 19.2518 5.17889 17.2194 6.49337 15.5252C7.12307 14.8513 7.9243 14.0742 8.63073 13.7283C10.0662 13.014 12.6685 11.1744 13.8218 9.33712C14.7246 7.87939 14.9887 5.2941 15.0631 3.94643C15.0767 3.66342 15.1196 3.00755 15.1196 3.00755H14.1739C12.989 3.00755 10.7749 3.25463 8.29219 4.919C8.2101 4.97352 8.11755 5.01049 8.02037 5.02758C7.92319 5.04467 7.8235 5.0415 7.72762 5.01828C7.63173 4.99506 7.54173 4.95229 7.46331 4.89267C7.38489 4.83305 7.31976 4.75789 7.27203 4.67193C6.56559 3.38939 4.89768 0.777157 2.67455 0C2.67455 0 0.191862 3.51293 0.966009 7.73788C1.66116 11.5563 3.59314 11.4552 2.2886 14.346C0.788163 16.7644 -0.0044184 19.5515 1.85269e-05 22.3938Z" fill="#7EC1FF"/>
<path d="M16.941 7.13593C16.8816 7.87667 16.7057 8.60353 16.4196 9.28995C16.0928 9.96443 15.6843 10.5966 15.2031 11.1722H15.4153C17.3523 11.1728 19.2565 11.6696 20.9447 12.6147C22.6329 13.5599 24.0482 14.9216 25.0545 16.5687C26.0607 18.2159 26.624 20.0931 26.6901 22.0197C26.7561 23.9462 26.3228 25.8573 25.4318 27.5689C26.0943 27.574 26.7398 27.3599 27.2667 26.9602L28.0792 26.3425L28.8895 26.9534C29.0399 27.0672 29.2009 27.1665 29.3702 27.2499C29.5608 27.343 29.7663 27.4023 29.9774 27.4251C30.7395 25.2354 30.9934 22.9023 30.7198 20.601C30.4463 18.2997 29.6526 16.0899 28.3981 14.1376C27.1437 12.1853 25.4612 10.5411 23.4769 9.32841C21.4926 8.11577 19.258 7.36618 16.941 7.13593Z" fill="#7EC1FF"/>
</svg>
