<svg width="43" height="43" viewBox="0 0 43 43" fill="none" xmlns="http://www.w3.org/2000/svg">
<rect width="43" height="43" rx="21.5" fill="white"/>
<path d="M25.5179 30C22.6 30 19.3284 28.6829 16.8526 26.1366C14.9074 24.2049 13.5811 21.6585 13.139 19.2C12.6969 16.478 13.3158 14.1073 14.9074 12.5268C15.0842 12.3512 15.3495 12.1756 15.6148 12.0878C15.7916 12 16.0569 12 16.3221 12C16.5874 12 16.8526 12.1756 17.1179 12.2634C17.3832 12.3512 17.56 12.6146 17.6484 12.878L20.0358 16.039C20.3895 16.5659 20.4779 17.0927 20.3895 17.6195C20.3895 18.1463 20.1242 18.6732 19.6821 19.1122L19.4169 19.3756C19.0632 19.7268 18.7979 20.2537 18.7979 20.8683C18.7979 21.3951 18.9748 21.922 19.4169 22.361L20.7432 23.678C21.539 24.4683 22.8653 24.4683 23.6611 23.678L23.9263 23.4146C24.28 23.0634 24.8105 22.8 25.3411 22.7122C25.8716 22.6244 26.4021 22.8 26.9326 23.0634L30.2042 25.522C30.3811 25.6098 30.5579 25.7854 30.7347 26.0488C30.9116 26.3122 31 26.5756 31 26.839C31 27.1024 31 27.3659 30.9116 27.6293C30.8232 27.8927 30.6463 28.1561 30.4695 28.3317C29.2316 29.3854 27.4632 30 25.5179 30ZM16.1453 13.3171C16.0569 13.3171 16.0569 13.3171 15.9684 13.3171C15.88 13.3171 15.88 13.4049 15.7916 13.4049C14.4653 14.6341 14.0232 16.6537 14.3769 18.9366C14.7305 21.2195 15.9684 23.5024 17.7369 25.1707C21.4505 28.8585 26.9326 29.7366 29.5853 27.1024C29.6737 27.0146 29.6737 27.0146 29.6737 26.9268C29.6737 26.839 29.6737 26.7512 29.6737 26.7512C29.6737 26.6634 29.6737 26.5756 29.5853 26.5756C29.5853 26.4878 29.4968 26.4878 29.4084 26.4L26.2253 24.0293C26.0484 23.9415 25.7832 23.8537 25.5179 23.9415C25.2526 23.9415 25.0758 24.1171 24.8105 24.2927L24.5453 24.5561C23.219 25.7854 21.0084 25.7854 19.7705 24.5561L18.4442 23.239C17.9137 22.5366 17.56 21.6585 17.56 20.7805C17.56 19.9024 17.9137 19.0244 18.5326 18.4098L18.7979 18.1463C18.9748 17.9707 19.0632 17.7073 19.1516 17.4439C19.1516 17.1805 19.1516 16.9171 18.9748 16.7415L16.5874 13.5805C16.499 13.4927 16.4105 13.4049 16.4105 13.4049C16.3221 13.3171 16.2337 13.3171 16.1453 13.3171Z" fill="#1A2AB2"/>
</svg>
