<svg width="24" height="24" viewBox="0 0 24 24" fill="none" xmlns="http://www.w3.org/2000/svg">
<path d="M19.9345 7.57785C19.4178 7.8013 18.8745 7.95712 18.318 8.04144C18.5906 7.99781 18.9586 7.52603 19.1113 7.33514C19.2899 7.07046 19.4388 6.78697 19.5556 6.48976C19.564 6.4721 19.5668 6.45227 19.5637 6.43295C19.5605 6.41363 19.5514 6.39577 19.5377 6.38178C19.524 6.36779 19.5064 6.35834 19.4871 6.35473C19.4679 6.35112 19.448 6.35351 19.4302 6.36158C18.8471 6.61298 18.2501 6.83059 17.6421 7.01335C17.6187 7.0205 17.5938 7.02097 17.5702 7.0147C17.5466 7.00844 17.5252 6.99569 17.5085 6.9779C17.458 6.91606 17.4023 6.85859 17.3422 6.80609C17.0653 6.56692 16.7514 6.37442 16.4127 6.23614C15.9609 6.05314 15.4735 5.97483 14.9871 6.00707C14.511 6.03717 14.0467 6.16725 13.6242 6.38885C13.2039 6.60887 12.8329 6.9123 12.5339 7.2806C12.2233 7.66279 12.0009 8.1088 11.8824 8.58685C11.7834 9.03496 11.7723 9.49803 11.8497 9.95037C11.8497 10.0267 11.8497 10.0376 11.7815 10.0267C9.14839 9.63404 6.96229 8.69048 5.1905 6.66974C5.11418 6.58248 5.07055 6.58248 5.00786 6.66974C4.231 7.85328 4.61535 9.72403 5.59392 10.643C5.72476 10.7658 5.8665 10.8857 6.00006 10.9976C5.5564 10.9653 5.12364 10.8447 4.72711 10.643C4.65079 10.594 4.61262 10.6212 4.60444 10.7085C4.59842 10.8353 4.60573 10.9623 4.62626 11.0875C4.7038 11.6809 4.93745 12.243 5.30335 12.7164C5.66925 13.1898 6.15427 13.5575 6.70879 13.7819C6.84418 13.8414 6.98593 13.8854 7.13129 13.9128C6.72099 13.9941 6.30008 14.007 5.88558 13.9509C5.79291 13.9346 5.75746 13.9782 5.7929 14.0655C6.33806 15.5626 7.52652 16.0099 8.41514 16.2635C8.53507 16.2826 8.65228 16.2826 8.77222 16.3126C8.77222 16.3126 8.77223 16.3126 8.75042 16.3317C8.45604 16.7816 7.43658 17.1143 6.95956 17.2807C6.08693 17.5931 5.15689 17.7122 4.23374 17.6297C4.08654 17.6079 4.05384 17.6079 4.01567 17.6297C3.97751 17.6515 4.01567 17.6897 4.05928 17.7279C4.24464 17.8506 4.43272 17.9597 4.62353 18.0633C5.20113 18.3718 5.81081 18.616 6.44165 18.7914C9.71263 19.6941 13.387 19.0287 15.8403 16.5934C17.7674 14.6845 18.4434 12.0366 18.4434 9.39406C18.4434 9.29043 18.5634 9.23316 18.637 9.17862C19.1261 8.80022 19.5569 8.35181 19.9154 7.84782C19.9723 7.77472 20.0022 7.68413 19.9999 7.59148V7.57785C19.9999 7.53694 19.9999 7.55057 19.9345 7.57785Z" fill="#6C6B6B"/>
</svg>
