<svg width="13" height="15" viewBox="0 0 13 15" fill="none" xmlns="http://www.w3.org/2000/svg">
<path d="M6.46002 9.30761C4.69122 9.30761 3.23003 7.84607 3.23003 6.07684C3.23003 4.30761 4.69122 2.84607 6.46002 2.84607C8.22883 2.84607 9.69003 4.30761 9.69003 6.07684C9.69003 7.84607 8.22883 9.30761 6.46002 9.30761ZM6.46002 4.07684C5.30645 4.07684 4.3836 4.99992 4.3836 6.15376C4.3836 7.30761 5.30645 8.23068 6.46002 8.23068C7.6136 8.23068 8.53645 7.30761 8.53645 6.15376C8.53645 4.99992 7.6136 4.07684 6.46002 4.07684Z" fill="#1A2AB2"/>
<path d="M6.46 15C6.3831 15 6.30619 15 6.22929 14.9231C5.99857 14.8462 0 12.0769 0 6.46154C0 4.76923 0.692143 3.07692 1.92262 1.92308C3.07619 0.692308 4.7681 0 6.46 0C8.15191 0 9.84381 0.692308 10.9974 1.92308C12.2279 3.15385 12.92 4.76923 12.92 6.46154C12.92 12.2308 6.92143 14.8462 6.69071 14.9231C6.61381 15 6.5369 15 6.46 15ZM6.46 1.15385C5.07571 1.15385 3.69143 1.69231 2.69167 2.69231C1.6919 3.69231 1.15357 5 1.15357 6.46154C1.15357 10.7692 5.38333 13.2308 6.46 13.7692C7.53667 13.2308 11.7664 10.8462 11.7664 6.46154C11.7664 5.07692 11.2281 3.69231 10.2283 2.69231C9.22857 1.69231 7.84429 1.15385 6.46 1.15385Z" fill="#1A2AB2"/>
</svg>
